<svg  viewBox="0 0 96 96">
    <circle cx="48" cy="48" r="19" />
    <path d="M51,12c0,-1.656 -1.344,-3 -3,-3c-1.656,0 -3,1.344 -3,3l0,9c0,1.656 1.344,3 3,3c1.656,0 3,-1.344 3,-3l0,-9Z"/>
    <path d="M84,51c1.656,0 3,-1.344 3,-3c0,-1.656 -1.344,-3 -3,-3l-9,0c-1.656,0 -3,1.344 -3,3c0,1.656 1.344,3 3,3l9,0Z"/>
    <path d="M21,51c1.656,0 3,-1.344 3,-3c0,-1.656 -1.344,-3 -3,-3l-9,0c-1.656,0 -3,1.344 -3,3c0,1.656 1.344,3 3,3l9,0Z"/>
    <path
        d="M75.577,24.665c1.171,-1.17 1.171,-3.071 0,-4.242c-1.171,-1.171 -3.072,-1.171 -4.242,-0l-6.364,6.364c-1.171,1.171 -1.171,3.072 -0,4.242c1.17,1.171 3.071,1.171 4.242,0l6.364,-6.364Z"/>
    <path
        d="M31.029,69.213c1.171,-1.171 1.171,-3.072 0,-4.242c-1.17,-1.171 -3.071,-1.171 -4.242,-0l-6.364,6.364c-1.171,1.17 -1.171,3.071 -0,4.242c1.171,1.171 3.072,1.171 4.242,0l6.364,-6.364Z"/>
    <path
        d="M24.665,20.423c-1.17,-1.171 -3.071,-1.171 -4.242,-0c-1.171,1.171 -1.171,3.072 -0,4.242l6.364,6.364c1.171,1.171 3.072,1.171 4.242,0c1.171,-1.17 1.171,-3.071 0,-4.242l-6.364,-6.364Z"/>
    <path
        d="M69.213,64.971c-1.171,-1.171 -3.072,-1.171 -4.242,-0c-1.171,1.17 -1.171,3.071 -0,4.242l6.364,6.364c1.17,1.171 3.071,1.171 4.242,0c1.171,-1.171 1.171,-3.072 0,-4.242l-6.364,-6.364Z"/>
    <path d="M51,75c0,-1.656 -1.344,-3 -3,-3c-1.656,0 -3,1.344 -3,3l0,9c0,1.656 1.344,3 3,3c1.656,0 3,-1.344 3,-3l0,-9Z"/>
</svg>